<?xml version="1.0" encoding="UTF-8"?>
<svg version="1.1" xmlns="http://www.w3.org/2000/svg" width="32" height="32">
<path d="M0 0 C10.56 0 21.12 0 32 0 C32 10.56 32 21.12 32 32 C21.44 32 10.88 32 0 32 C0 21.44 0 10.88 0 0 Z " fill="#D2D2D1" transform="translate(0,0)"/>
<path d="M0 0 C4.29 0 8.58 0 13 0 C13 10.56 13 21.12 13 32 C10.69 32 8.38 32 6 32 C6.33 31.34 6.66 30.68 7 30 C7.09773002 27.4676428 7.13910387 24.96914408 7.125 22.4375 C7.12886719 21.73947266 7.13273437 21.04144531 7.13671875 20.32226562 C7.43922515 16.87251102 7.43922515 16.87251102 6 14 C3.65012738 13.76472227 1.29443961 13.58613583 -1.0625 13.4375 C-2.35285156 13.35371094 -3.64320312 13.26992187 -4.97265625 13.18359375 C-5.97167969 13.12300781 -6.97070312 13.06242188 -8 13 C-8 10.69 -8 8.38 -8 6 C-8.33 8.31 -8.66 10.62 -9 13 C-9.33 13 -9.66 13 -10 13 C-10.35820896 5.71641791 -10.35820896 5.71641791 -9 3 C-5.74816746 1.37408373 -2.55412473 1.45947686 1 2 C3 3.1875 3 3.1875 4 5 C4.1875 7.6875 4.1875 7.6875 4 10 C3.34 9.01 2.68 8.02 2 7 C2.33 8.32 2.66 9.64 3 11 C3.66 11 4.32 11 5 11 C4.56268919 5.31495945 4.26826873 4.26826873 0 0 Z " fill="#FDFDFC" transform="translate(19,0)"/>
<path d="M0 0 C4.29 0 8.58 0 13 0 C11.7934375 1.2375 11.7934375 1.2375 10.5625 2.5 C7.43826546 6.18747683 7.32105699 9.26440943 7 14 C6.67 14.33 6.34 14.66 6 15 C5.90002358 17.49058914 5.86120373 19.94727395 5.875 22.4375 C5.87113281 23.13166016 5.86726562 23.82582031 5.86328125 24.54101562 C5.80640165 28.39769757 5.80640165 28.39769757 7 32 C4.69 32 2.38 32 0 32 C0 21.44 0 10.88 0 0 Z " fill="#FDFDFC" transform="translate(0,0)"/>
<path d="M0 0 C2 1.1875 2 1.1875 3 3 C3.1875 5.6875 3.1875 5.6875 3 8 C2.34 7.01 1.68 6.02 1 5 C1.33 6.98 1.66 8.96 2 11 C-1.63 11 -5.26 11 -9 11 C-9 8.69 -9 6.38 -9 4 C-9.33 6.31 -9.66 8.62 -10 11 C-10.33 11 -10.66 11 -11 11 C-11.35820896 3.71641791 -11.35820896 3.71641791 -10 1 C-6.74816746 -0.62591627 -3.55412473 -0.54052314 0 0 Z " fill="#F6F6F5" transform="translate(20,2)"/>
<path d="M0 0 C2.8125 1.5625 2.8125 1.5625 5 4 C5.8125 7.75 5.8125 7.75 6 11 C4.68 11 3.36 11 2 11 C1.67 9.02 1.34 7.04 1 5 C1.66 5 2.32 5 3 5 C1.23863645 2.81668311 1.23863645 2.81668311 -0.9453125 2.8046875 C-3.97265625 2.90234375 -3.97265625 2.90234375 -7 3 C-7.33 3.66 -7.66 4.32 -8 5 C-7.67 5.66 -7.34 6.32 -7 7 C-7.33 8.98 -7.66 10.96 -8 13 C-3.38 13 1.24 13 6 13 C6.33 13.66 6.66 14.32 7 15 C0.4 15 -6.2 15 -13 15 C-11.86037736 4.74339623 -11.86037736 4.74339623 -8 1 C-5.14675563 -0.42662219 -3.16545451 -0.31033868 0 0 Z " fill="#606060" transform="translate(19,0)"/>
<path d="M0 0 C1.32 0.33 2.64 0.66 4 1 C3.67 4.3 3.34 7.6 3 11 C1.68 10.67 0.36 10.34 -1 10 C-1.9765625 3.9453125 -1.9765625 3.9453125 -2 2 C-1.34 1.34 -0.68 0.68 0 0 Z " fill="#4D4D4C" transform="translate(15,17)"/>
<path d="M0 0 C2 1.1875 2 1.1875 3 3 C3.1875 5.6875 3.1875 5.6875 3 8 C2.7215625 7.0409375 2.7215625 7.0409375 2.4375 6.0625 C1.07115208 3.61341072 1.07115208 3.61341072 -2.4375 3.1875 C-5.96225747 2.78427895 -5.96225747 2.78427895 -9 4 C-9.33 6.31 -9.66 8.62 -10 11 C-10.33 11 -10.66 11 -11 11 C-11.35820896 3.71641791 -11.35820896 3.71641791 -10 1 C-6.74816746 -0.62591627 -3.55412473 -0.54052314 0 0 Z " fill="#C4C4C3" transform="translate(20,2)"/>
<path d="M0 0 C1.32 0 2.64 0 4 0 C3.67 2.31 3.34 4.62 3 7 C2.34 7 1.68 7 1 7 C0.67 4.69 0.34 2.38 0 0 Z " fill="#EAEAEA" transform="translate(14,19)"/>
</svg>
